<?xml version="1.0" standalone="no"?>
<!DOCTYPE svg PUBLIC "-//W3C//DTD SVG 20010904//EN"
 "http://www.w3.org/TR/2001/REC-SVG-20010904/DTD/svg10.dtd">
<svg version="1.0" xmlns="http://www.w3.org/2000/svg"
 width="700.000000pt" height="700.000000pt" viewBox="0 0 700.000000 700.000000"
 preserveAspectRatio="xMidYMid meet">
<metadata>
Created by potrace 1.14, written by Peter Selinger 2001-2017
</metadata>
<g transform="translate(0.000000,700.000000) scale(0.100000,-0.100000)"
fill="#000000" stroke="none">
<path d="M2290 6990 c-478 -50 -776 -209 -913 -486 -47 -94 -62 -156 -62 -244
1 -252 261 -435 730 -515 252 -43 358 -48 1110 -53 402 -2 726 -6 720 -8 -5
-2 -122 -24 -260 -49 -669 -122 -933 -209 -1088 -358 -144 -138 -181 -296
-107 -455 94 -201 305 -270 650 -211 154 27 312 30 355 9 37 -18 43 -55 19
-102 -9 -18 -67 -80 -128 -138 -318 -300 -360 -355 -354 -461 3 -50 5 -54 30
-57 24 -3 28 1 38 39 17 63 88 130 277 265 187 132 317 253 352 327 35 72 27
165 -17 229 -61 89 -165 140 -322 158 -47 5 -180 9 -295 8 -171 -1 -217 2
-247 15 -78 33 -69 83 25 137 117 68 355 124 778 185 651 94 858 152 984 279
74 74 90 113 90 216 0 76 -3 91 -30 139 -57 102 -150 163 -315 205 -172 44
-267 47 -1195 44 -676 -2 -893 0 -975 10 -256 32 -377 65 -437 117 -33 28 -37
37 -36 73 1 22 9 56 19 74 91 180 289 293 637 363 255 51 346 58 757 60 l385
2 0 29 c0 28 -3 30 -85 52 -123 32 -306 68 -450 87 -146 19 -517 28 -640 15z"/>
<path d="M1125 3691 c-50 -22 -91 -69 -105 -119 -14 -51 -14 -2093 0 -2231 34
-324 207 -610 478 -788 52 -34 99 -64 104 -65 8 -3 7 -21 -2 -57 -16 -68 -8
-164 18 -224 29 -65 104 -142 171 -174 l56 -28 1140 0 1140 0 57 27 c162 76
234 245 184 430 -6 21 -4 27 14 33 53 17 203 131 283 215 135 141 218 293 268
489 10 41 20 75 22 76 1 0 38 11 82 23 367 103 697 423 856 830 82 211 113
416 90 615 -24 219 -96 373 -240 518 -169 169 -397 262 -697 285 -90 6 -92 7
-97 34 -8 39 -54 90 -102 111 -38 18 -116 19 -1860 19 -1744 0 -1822 -1 -1860
-19z m4056 -712 c176 -48 256 -142 266 -313 19 -304 -190 -670 -464 -815 l-23
-12 0 587 0 587 74 -7 c40 -4 107 -16 147 -27z m-2061 -119 l0 -80 -360 0
-360 0 0 -220 0 -220 345 0 345 0 0 -85 0 -85 -345 0 -345 0 0 -265 0 -265
368 -2 367 -3 3 -82 3 -83 -471 0 -470 0 0 735 0 735 460 0 460 0 0 -80z
m1018 65 c129 -30 214 -94 261 -194 23 -49 26 -69 26 -156 -1 -82 -5 -109 -24
-151 -29 -66 -74 -109 -144 -138 l-56 -23 54 -22 c161 -67 244 -205 232 -385
-13 -202 -125 -327 -332 -371 -53 -11 -146 -15 -382 -15 l-313 0 0 735 0 735
308 0 c235 0 322 -4 370 -15z"/>
<path d="M3660 2555 l0 -228 193 6 c208 6 279 21 325 70 73 77 68 243 -9 314
-54 49 -91 57 -306 61 l-203 4 0 -227z"/>
<path d="M3660 1899 l0 -271 213 4 c195 3 216 5 262 26 110 50 150 126 143
266 -7 132 -55 196 -171 231 -38 11 -102 15 -249 15 l-198 0 0 -271z"/>
</g>
</svg>
